<svg viewBox="840.36 129.29 452.22 635.94" xmlns="http://www.w3.org/2000/svg">
  <path d="M 947.50 441.71 C 953.21 440.77, 960.73 433.85, 964.76 430.36 C 971.64 424.40, 975.01 421.98, 982.27 416.81 C 1012.36 395.35, 1029.87 397.37, 1041.84 384.93 C 1103.87 320.50, 1226.69 378.75, 1204.75 477.81 C 1198.48 506.12, 1177.29 529.12, 1158.69 540.75 C 1119.31 565.37, 1086.09 551.49, 1066.51 555.49 L 1066.43 612.66 C 1083.03 620.35, 1112.37 618.49, 1130.34 617.39 L 1190.76 745.03 L 1267.96 745.23 C 1269.87 732.06, 1209.71 620.32, 1199.89 591.25 C 1239.18 571.27, 1272.58 510.19, 1272.58 459.58 C 1272.58 307.59, 1101.28 242.46, 998.10 335.37 C 973.31 357.69, 940.94 410.80, 947.50 441.71 Z M 1009.14 744.91 C 1013.78 730.89, 1010.48 531.49, 1010.48 498.00 L 1073.45 498.06 L 1088.91 531.89 C 1092.23 538.51, 1091.54 539.08, 1097.03 541.82 C 1102.65 535.78, 1132.61 464.11, 1133.17 460.77 C 1134.28 454.18, 1125.00 437.32, 1121.72 433.07 C 1099.84 431.97, 1076.29 432.93, 1054.19 432.80 C 1021.20 432.59, 984.92 458.44, 962.67 478.85 C 941.60 498.17, 944.82 494.22, 944.82 531.55 C 944.82 577.54, 945.26 623.75, 944.75 669.71 C 944.53 689.97, 950.45 689.87, 972.78 712.21 C 979.32 718.75, 1001.09 744.02, 1009.14 744.91 Z M 909.57 645.59 C 913.85 634.17, 911.28 491.21, 911.28 465.42 C 911.28 380.30, 934.85 322.46, 998.82 277.70 C 1018.40 264.01, 1034.98 256.16, 1060.87 248.34 C 1099.85 236.59, 1140.73 241.61, 1178.81 253.32 C 1190.57 256.93, 1202.85 264.51, 1214.34 265.68 L 1245.00 201.29 C 1226.56 188.44, 1186.49 174.52, 1159.89 169.12 C 1062.01 149.29, 961.27 186.38, 909.72 264.45 C 871.58 322.20, 863.62 374.32, 863.62 455.69 C 863.62 495.24, 863.63 534.80, 863.62 574.35 C 863.61 608.08, 860.36 599.80, 878.45 617.87 C 884.36 623.78, 902.08 644.71, 909.57 645.59" fill="rgb(204,204,204)" fill-rule="evenodd"/>
</svg>
